PathFileType	4	(X/Y/Z)	C:/Users/beibeiliu/ov580/test_trc/User1\sequence.16_training_dense_right.trc
DataRate	CameraRate	NumFrames	NumMarkers	Units	OrigDataRate	OrigDataStartFrame	OrigNumFrames
120	120	19	19	mm	120	202	268
Frame#	Time	ThumbCMC			ThumbMCP			ThumbIP			ThumbTip			IndexMCP			IndexPIP			IndexTip			MiddleMCP			MiddlePIP			MiddleTip			RingMCP			RingPIP			RingTip			PinkyMCP			PinkyPIP			PinkyTip			BackHand1			BackHand2			BackHand3	
		X0	Y0	Z0	X1	Y1	Z1	X2	Y2	Z2	X3	Y3	Z3	X4	Y4	Z4	X5	Y5	Z5	X6	Y6	Z6	X7	Y7	Z7	X8	Y8	Z8	X9	Y9	Z9	X10	Y10	Z10	X11	Y11	Z11	X12	Y12	Z12	X13	Y13	Z13	X14	Y14	Z14	X15	Y15	Z15	X16	Y16	Z16	X17	Y17	Z17	X18	Y18	Z18	
201	1.675	135.649	77.9484	61.9354	112.246	76.7715	37.4399	97.0508	81.7534	21.3273	77.8573	83.8012	8.79727	144.033	97.5326	-19.25	138.832	63.3648	-27.246	138.508	53.4481	5.46074	170.137	84.527	-27.4244	151.155	54.5237	-28.122	153.045	44.6215	13.616	191.785	78.1903	-26.8874	175.457	48.4367	-32.1481	165.835	42.507	1.70957	221.682	76.1413	-9.15155	229.544	78.2697	-26.6534	240.62	88.4135	-46.1216	206.007	90.2556	32.6862	203.955	80.5142	66.9638	169.209	96.3679	56.4835	
202	1.68333	138.965	83.8305	57.1614	115.931	82.4946	37.8262	97.8535	92.566	18.6825	82.708	96.4455	6.0505	146.192	96.419	-24.5864	138.968	64.606	-27.9994	139.581	54.6959	5.81572	170.191	85.0266	-27.0569	153.188	51.6044	-27.5069	149.279	45.9662	9.52705	189.321	74.6656	-30.0221	170.933	45.0045	-30.541	165.699	40.3984	0.376846	225.182	68.6314	-11.6377	230.692	71.837	-29.0801	246.175	78.1063	-44.522	208.537	87.219	34.0186	208.403	74.9471	63.7173	175.677	97.3918	52.762	
203	1.69167	140.089	92.2413	55.0642	117.447	92.8587	38.408	103.525	102.074	16.9833	85.3411	109.276	7.22061	151.01	93.8826	-27.5268	137.539	65.4377	-29.9255	136.046	57.9922	7.82522	172.189	77.1772	-32.6336	152.168	50.7696	-27.1734	152.235	46.0418	12.5701	192.99	65.9692	-31.5677	167.279	40.9823	-29.5298	165.51	39.2595	4.17759	225.683	61.5482	-16.1054	232.123	60.8322	-32.9185	246.374	65.5478	-45.1721	210.886	82.9238	29.75	211.713	70.9509	65.6621	181.135	100.473	48.3525	
204	1.7	145.897	93.0892	55.5393	124.253	97.7105	34.8226	107.784	111.06	18.0728	91.8235	117.453	9.51898	156.814	89.3032	-31.0493	137.545	62.9714	-28.2613	139.864	57.7421	9.14905	174.878	70.8243	-32.7745	152.707	45.8265	-25.3046	148.27	47.3357	14.1093	189.645	58.6511	-34.2029	165.912	34.4113	-27.423	160.047	39.4158	5.25367	223.733	51.3688	-14.2476	232.797	45.5657	-31.5436	245.019	51.6013	-47.0591	211.785	74.907	27.6887	211.55	68.9954	60.979	185.233	97.0251	45.9884	
205	1.70833	149.047	96.3039	52.1549	125.546	103.908	38.0679	111.919	115.224	18.6925	97.6466	124.226	7.13299	157.104	84.6956	-31.282	136.878	59.749	-25.9133	137.222	56.16	5.59334	176.3	66.8226	-31.0271	150.431	43.705	-24.2438	149.678	46.7117	18.3491	189.721	49.5366	-34.0022	162.367	33.3774	-28.422	156.732	37.4163	4.60773	219.333	43.9109	-12.3218	227.795	37.4049	-30.5804	242.434	38.9267	-49.3753	215.953	69.9695	25.6151	210.207	68.7502	62.232	190.157	95.5232	42.8577	
206	1.71667	152.091	98.6697	50.3744	128.117	105.763	33.1935	113.042	119.13	14.9088	99.3627	128.231	7.56	157.805	80.5277	-31.9969	136.387	58.1872	-26.1069	137.505	56.8595	9.82536	174.986	62.5311	-31.7279	147.445	39.3848	-23.3072	145.248	45.8283	17.4183	188.993	45.2664	-30.264	157.452	26.9446	-22.749	156.362	33.5652	11.2279	216.8	35.0255	-12.3483	223.022	28.8189	-32.5976	235.897	26.1955	-47.5557	212.189	68.0236	24.8398	212.072	63.3901	58.1534	191.204	91.1991	40.0332	
207	1.725	151.625	97.0507	52.475	129.75	102.826	31.7659	113.458	118.863	15.8278	99.5428	127.205	9.71611	153.768	78.4292	-31.4763	134.366	53.1797	-24.21	135.6	55.8881	9.16027	167.443	55.6243	-32.3045	143.656	36.9751	-21.6185	142.145	45.61	19.5596	185.318	40.9226	-27.9531	153.262	23.643	-19.0146	151.988	30.0989	10.6034	212.379	29.9913	-10.653	220.28	17.6747	-29.2449	230.987	17.6203	-46.9742	211.788	64.4937	25.1765	212.719	61.3734	62.4472	191.27	90.9075	42.3641	
208	1.73333	148.717	95.8099	51.6253	125.603	100.106	35.8327	111.144	112.727	15.3075	95.7575	125.688	8.79665	150.981	77.1022	-29.7436	130.332	52.5287	-25.4344	133.544	55.9159	14.7474	164.21	54.2053	-31.3725	141.199	32.4043	-19.6468	141.253	39.6256	19.6017	180.857	39.8413	-27.98	153.266	23.1922	-22.2445	150.58	27.9769	12.6569	211.463	26.385	-14.1939	216.821	16.4575	-24.9621	227.41	15.024	-45.5501	207.297	63.1367	25.2797	210.255	63.6962	58.7576	189.096	89.004	37.8258	
209	1.74167	142.229	92.1888	54.8975	120.166	92.1159	35.1903	104.883	101.486	19.0079	86.7795	113.263	10.8239	147.345	75.2883	-26.354	128.999	46.6367	-21.0418	132.012	47.9577	12.9121	165.231	52.9359	-28.6914	140.451	28.8721	-17.81	138.967	38.7205	20.3193	179.003	38.9539	-27.6015	151.605	17.3259	-15.1834	153.505	26.9693	17.6183	210.251	29.7801	-13.3669	216.076	20.8856	-31.1886	227.041	19.024	-47.1725	207.699	61.7625	24.1261	208.376	61.769	60.0336	185.107	86.6461	40.307	
210	1.75	139.837	82.1815	57.3802	115.217	79.9136	35.196	95.9797	86.9008	18.8886	78.2602	91.3651	15.8861	139.262	71.3093	-25.8818	128.044	42.4356	-21.8238	128.298	45.8517	17.0451	159.83	50.9534	-30.1098	136.969	29.2384	-17.857	140.15	33.3074	19.5548	179.94	42.8734	-26.7301	153.336	19.7109	-18.5392	151.513	25.5278	13.8591	210.434	37.3594	-10.2291	214.752	30.6779	-30.8103	224.922	30.0982	-50.855	200.603	69.2717	26.7364	205.148	68.644	63.3204	177.038	89.9888	44.8022	
211	1.75833	129.44	76.7703	58.5554	106.462	69.2145	43.4071	86.4482	73.5884	24.6358	67.4831	74.0764	16.3894	132.761	68.182	-24.8383	124.338	38.5666	-20.5355	127.522	41.6996	17.3432	156.222	57.2853	-28.5192	140.483	27.6306	-19.5611	141.295	30.4497	19.5067	174.162	46.2409	-28.8456	157.99	17.5572	-20.5716	157.15	22.0534	12.7189	210.126	45.3409	-14.8089	212.525	42.0442	-29.7983	225.318	41.5874	-54.2973	195.977	75.371	25.1778	201.883	68.7943	62.4404	170.91	90.0976	44.6044	
212	1.76667	125.654	71.4809	57.9341	107.5	59.5359	40.7728	83.521	62.2996	24.412	64.9085	59.9799	11.4016	129.365	68.2984	-23.8967	124.129	38.2863	-22.1436	126.905	37.6924	16.1504	153.999	55.0653	-30.2588	139.559	27.8738	-21.0531	143.076	28.4361	18.4823	176.375	45.995	-30.5707	157.054	19.7301	-21.544	156.836	22.0406	11.7953	209.118	50.2021	-17.0811	213.696	47.6597	-34.9448	222.859	48.6143	-56.3141	193.434	78.049	27.659	195.767	72.5755	60.4058	163.697	89.0716	47.2913	
213	1.775	126.64	67.2156	59.511	103.039	57.5371	37.7064	84.089	56.3277	19.7173	65.989	53.5298	3.98745	129.312	70.3002	-21.1625	123.926	37.4528	-22.5275	126.866	36.5929	16.0868	154.442	59.448	-28.2635	141.135	25.8722	-20.9656	146.503	30.3267	20.9379	172.072	50.7046	-30.0718	159.332	21.7002	-24.0333	154.818	23.7956	12.297	206.93	54.0227	-15.3763	213.416	49.161	-34.5244	218.228	54.2237	-55.5057	193.18	78.314	30.7324	197.275	72.0359	64.4354	161.345	87.8188	52.1819	
214	1.78333	125.442	64.6686	60.7106	107.945	52.7088	38.7686	85.1385	52.8254	17.5236	69.1686	47.0063	4.56174	129.708	68.7176	-22.6532	127.652	36.6609	-23.1743	128.698	35.9279	13.336	153.041	58.9188	-28.4997	145.58	26.099	-22.7812	143.466	29.1969	18.5389	173.26	51.2533	-30.1229	159.544	20.1038	-23.3009	157.683	20.4692	9.6154	209.241	53.9699	-16.0302	211.673	51.9635	-37.0371	218.127	55.8184	-57.6753	194.693	78.465	26.6097	199.743	73.4952	61.823	163.588	85.1188	50.8991	
215	1.79167	126.7	63.7367	57.6615	106.814	52.0455	33.8041	90.1567	49.2995	15.5243	72.5705	43.7146	-0.390053	132.985	67.1258	-25.1071	127.946	34.797	-23.4969	131.685	35.4349	11.8497	152.624	57.5361	-29.8542	145.201	26.173	-23.2871	147.899	29.3601	18.6245	178.287	49.7094	-29.5182	159.596	20.5561	-22.7219	157.468	20.9118	7.63201	207.827	56.7915	-17.5814	213.086	52.8402	-34.727	216.774	58.182	-55.6	192.908	78.3725	29.2597	197.18	73.1907	62.6767	160.57	88.1034	49.0512	
216	1.8	124.816	62.8507	57.2726	108.919	48.8138	33.1054	92.9936	45.9796	9.44733	75.5048	40.2872	-6.3978	131.339	69.0227	-24.0823	129.009	36.384	-24.9742	134.575	35.3168	11.372	154.819	60.8469	-28.2041	146.013	25.0065	-19.9098	144.067	30.2175	16.962	175.248	50.6447	-30.9604	163.126	21.3412	-25.309	158.718	23.1558	10.4993	206.119	56.9304	-17.366	206.033	55.4291	-39.2786	212.365	57.2452	-63.2426	191.993	79.8116	26.7651	199.231	73.3372	60.0686	163.45	84.0982	50.8575	
217	1.80833	126.881	61.9938	57.4969	106.911	48.5365	34.1503	90.8505	45.6941	8.56027	80.9459	37.4256	-7.274	128.658	71.3681	-24.1027	125.453	37.6047	-24.9331	132.777	36.9471	11.4547	155.484	57.7186	-30.768	146.314	26.2551	-21.5532	148.418	32.875	18.7676	174.941	50.937	-31.1623	163.527	20.3877	-23.5072	158.8	22.7703	9.68085	204.695	57.8871	-17.9498	203.952	56.5627	-38.5448	201.443	62.6276	-61.4413	193.82	75.9196	28.381	199.334	73.0335	59.2545	163.155	85.1662	48.7811	
218	1.81667	128.279	63.3568	57.5446	107.739	49.7088	31.3336	91.476	46.685	7.07357	79.032	38.887	-9.26597	129.155	72.8779	-23.2559	124.856	39.8692	-24.0751	134.781	38.7099	12.2003	152.777	61.6224	-30.1485	145.061	26.9697	-21.1119	148.747	33.5965	18.8085	173.789	51.2149	-31.3823	163.445	21.9261	-26.3649	160.993	23.6526	8.56912	200.381	60.7404	-17.0748	202.753	58.2979	-37.779	192.337	62.1758	-65.5548	194.426	78.3528	30.1781	197.719	73.0669	62.074	166.247	86.1644	48.3019	
219	1.825	129.498	61.7225	57.8515	105.821	49.0926	32.7116	92.6475	46.9342	6.43032	81.5965	38.1908	-11.2417	132.357	74.0655	-22.3859	127.71	40.3842	-23.2963	134.125	38.3861	9.90222	152.932	62.015	-31.2555	144.304	30.1026	-23.0901	147.471	33.3133	16.3079	175.335	52.2794	-31.8625	160.355	24.7194	-24.9104	160.174	26.1175	9.80482	198.18	62.9666	-20.3415	196.103	61.4491	-38.1072	188.972	62.481	-63.7472	194.324	77.3643	28.1403	196.892	71.6153	61.1731	163.053	84.5619	51.7191	
